<svg id="Calque_1" data-name="Calque 1" xmlns="http://www.w3.org/2000/svg" viewBox="0 0 292.96 44.49"><path d="M46.14,20.42v-.06h0A12,12,0,0,0,34,10H4.7a4.58,4.58,0,0,0-3,1A4.56,4.56,0,0,0,.19,13.72v0A9.87,9.87,0,0,0,0,15.48V38.7a10.78,10.78,0,0,0,.18,1.79,4.6,4.6,0,0,0,1.46,2.75,4.56,4.56,0,0,0,2.93,1.09v0h0l0-2h0l0,2A4.63,4.63,0,0,0,8.13,43a5.06,5.06,0,0,0,1.3-3.57h0v0h0c0-2.66,0-5.31,0-7.95s0-5.29,0-7.93a4.67,4.67,0,0,1,2-3.95h0a4.59,4.59,0,0,1,6.27.88,6.37,6.37,0,0,1,.92,3.65V39.79A4.56,4.56,0,0,0,20,43a4.48,4.48,0,0,0,3.19,1.29h.05A4.64,4.64,0,0,0,26.63,43,4.86,4.86,0,0,0,28,39.52V23.8a5.13,5.13,0,0,1,1-3.13,4.47,4.47,0,0,1,4.44-1.93,4.28,4.28,0,0,1,2.22.84,3.67,3.67,0,0,1,1.19,1.92L38.7,21h0l-1.92.55h0a10.06,10.06,0,0,1,.37,2.67h0c0,2.51,0,5,0,7.56s0,5.07,0,7.6h0v.09a6.49,6.49,0,0,0,.91,3.07h0v0h0a4.53,4.53,0,0,0,5.37,1.53h0a4.18,4.18,0,0,0,2.15-1.66,4.7,4.7,0,0,0,.69-2.61V22.56a12.32,12.32,0,0,0-.21-2.14ZM19.41,19.26Zm7.9.23ZM42.82,42.18Zm1.35-21.45Z" transform="translate(0 0)" style="fill:#ff8624"/><path d="M206.83,26.8h0l2,0h0a16.71,16.71,0,0,0-4.67-11.48h0a16.68,16.68,0,0,0-13.86-5.22h0a16.3,16.3,0,0,0-11.94,6.13h0c-4.09,5.07-4.58,10.87-3,16.64h0a15.77,15.77,0,0,0,15.22,11.66h0l0-2h0l0,2c2,0,4.07,0,6.22,0,2.39,0,4.84,0,7.29,0h0a5,5,0,0,0,3.5-1.34,4.82,4.82,0,0,0,1.31-3.51c0-4.25,0-8.55,0-12.84Zm-15.28,11v-2a7.88,7.88,0,0,1-7.83-7.25l-2,.19h0l2-.19h0c-.39-3.71.68-6.54,3.57-8.56a7.88,7.88,0,0,1,12.07,4.84l1.95-.41h0l-1.95.41h0c.82,3.79.09,6.84-2.72,9.26a7.33,7.33,0,0,1-5.07,1.73h0v2Zm6.4-2.21h0Zm-7.52-23.51h0l0-.22Z" transform="translate(0 0)" style="fill:#ff8624"/><path d="M91.65,26.31h0l-2,.09h0l2-.09a16.51,16.51,0,0,0-5.16-11.7h0a17,17,0,0,0-13.74-4.5h0a16.47,16.47,0,0,0-10.35,4.59h0a16.77,16.77,0,0,0-5,12.59v.15a23.18,23.18,0,0,0,.33,3.24h0l0,0v.05h0a16,16,0,0,0,7.86,11.42h0l1-1.72h0l-1,1.72a18.1,18.1,0,0,0,11.62,2.1h0a15.89,15.89,0,0,0,10.65-5.8h0A17.46,17.46,0,0,0,91.65,26.31ZM71,37.17ZM81.19,35.3l0,0-1.3-1.44h0a7.61,7.61,0,0,1-8.22,1.47c-2.82-1-4.39-3-4.95-6.18V29l-2,.42h0l2-.42a16.06,16.06,0,0,1-.22-1.84c0-4.08,2.2-7.06,5.33-8.09h0c5-1.7,9.77,1.18,10.6,6.53.49,3.34-.21,6.07-2.54,8.17l1.34,1.49Zm-16.74-8Zm19.92-1.91Zm-20.6-9.22Z" transform="translate(0 0)" style="fill:#ff8624"/><path d="M134.75,36.8h0c0-4.39,0-9-.23-13.54h0A13.77,13.77,0,0,0,128.92,13h0A15.58,15.58,0,0,0,119.18,10v0h0c-3.91,0-7.84,0-11.71,0a4.79,4.79,0,0,0-3.53,1.32,4.89,4.89,0,0,0-1.27,3.52v24.8a4.82,4.82,0,0,0,1.31,3.4,4.63,4.63,0,0,0,3.42,1.29h0A4.47,4.47,0,0,0,110.71,43,4.76,4.76,0,0,0,112,39.65c0-4.88.11-9.87,0-14.85h0l-2,.07h0l2-.07a5.62,5.62,0,0,1,4.67-5.85c3.2-.74,6.29.43,7.69,2.54a8.5,8.5,0,0,1,1.2,4.88h0c0,2.23,0,4.47,0,6.72s0,4.49,0,6.74h0v0h0a4.44,4.44,0,0,0,1.27,3.22A4.64,4.64,0,0,0,130,44.35H130a4.8,4.8,0,0,0,3.24-1.18A4.5,4.5,0,0,0,134.75,40v0h0l-2-.07h0l2,.07c0-1.05,0-2.24,0-3.14ZM107.4,42.35Zm20.1-2.51h0Z" transform="translate(0 0)" style="fill:#ff8624"/><path d="M272.27,23.73h0l-2,.09h0l2-.09a14.09,14.09,0,0,0-6.11-11.12L265,14.23h0l0,0,1.15-1.61h0A16,16,0,0,0,256.74,10l0,2h0l0-2h0c-3.72,0-7.46,0-11.14,0a5.42,5.42,0,0,0-4,1.27,5.41,5.41,0,0,0-1.27,4V27.15h0c0,4.17,0,8.52.07,12.75h0a4.56,4.56,0,0,0,1.34,3.28A4.66,4.66,0,0,0,245,44.39,4.57,4.57,0,0,0,248.43,43a4.86,4.86,0,0,0,1.26-3.44V24.22a4.79,4.79,0,0,1,.84-2.82,7.54,7.54,0,0,1,11.12-.4,8.16,8.16,0,0,1,1.57,5.4V39.69a4.41,4.41,0,0,0,4.78,4.7h0a4.44,4.44,0,0,0,3.31-1.51,5.18,5.18,0,0,0,1.19-3.45h0C272.46,34.25,272.5,29,272.27,23.73Zm-23.38-3.47Z" transform="translate(0 0)" style="fill:#ff8624"/><path d="M161.48,38.59h0l2-.2h0A4.27,4.27,0,0,0,162,35.48a4.84,4.84,0,0,0-3-1.06l0,2h0l0-2h-1.5a1.87,1.87,0,0,1-1.56-.81h0l-1.59,1.21h0l1.6-1.21a3.82,3.82,0,0,1-.83-2.42v-12h0a27.31,27.31,0,0,0,3.87-.17h0a4,4,0,0,0,3.42-4.37l-2,.14h0l2-.14h0a4,4,0,0,0-3.71-3.8h0c-1.16-.09-2.37-.15-3.59-.15,0-2,0-4.05,0-6.09l-2,0h0l2,0h0a4.83,4.83,0,0,0-1.24-3.19A4.54,4.54,0,0,0,150.65,0h0l-.1,2h0l.1-2a4.45,4.45,0,0,0-3.25,1.06,4.74,4.74,0,0,0-1.5,3.06h0l2,.23h0l-2-.23a18.52,18.52,0,0,0-.12,2.11v11.6c0,4.74.15,9.59.19,14.18h0a11.71,11.71,0,0,0,2,6.52l1.69-1.07h0L148,38.54h0a11.43,11.43,0,0,0,11.86,5h0l-.45-1.94h0l.45,2a4.65,4.65,0,0,0,2.83-1.84,4.75,4.75,0,0,0,.8-3.27Zm-6.48-27h0l-.74,0h0Zm-.77,0h0l-1.21,0h0ZM148,32Z" transform="translate(0 0)" style="fill:#ff8624"/><path d="M292.93,39.14q.06-12.08,0-24.15h0a5.89,5.89,0,0,0-.44-2.18h0v0h0a4.4,4.4,0,0,0-2-2.21,4.54,4.54,0,0,0-2.88-.49h0a5,5,0,0,0-2.9,1.5,4.63,4.63,0,0,0-1.11,3.13V27.05c0,4.08,0,8.16,0,12.3h0a5,5,0,0,0,.75,2.74,4.35,4.35,0,0,0,2.28,1.77h0l.64-1.9h0l-.64,1.9a4.81,4.81,0,0,0,4.46-.61,5,5,0,0,0,1.92-4.13h0Zm-2-24.15h0Zm-.3-1.46Zm.3,25.61Z" transform="translate(0 0)" style="fill:#ff8624"/><path d="M229.32,15h0v0h0a5.32,5.32,0,0,0-.7-2.77,4.35,4.35,0,0,0-2.23-1.85h0a4.68,4.68,0,0,0-4.45.47,5,5,0,0,0-2,4h0l2,.05h0l-2-.05c0,1.68,0,3.41,0,5v19.1a5.92,5.92,0,0,0,.71,3A4.27,4.27,0,0,0,223,43.85a4.81,4.81,0,0,0,4.43-.57,4.89,4.89,0,0,0,1.91-4.06V27.05c0-4,0-8,0-12.06Zm-2,0Z" transform="translate(0 0)" style="fill:#ff8624"/></svg>